<svg xmlns="http://www.w3.org/2000/svg" viewBox="0 0 24 24"><defs><linearGradient id="ig" x1="0%" y1="100%" x2="100%" y2="0%"><stop offset="0%" stop-color="#f09433"/><stop offset="50%" stop-color="#dc2743"/><stop offset="100%" stop-color="#bc1888"/></linearGradient></defs><path fill="url(#ig)" d="M12 2.2c3.2 0 3.6 0 4.9.1 3.3.1 4.8 1.7 4.9 4.9.1 1.3.1 1.6.1 4.8 0 3.2 0 3.6-.1 4.8-.1 3.2-1.7 4.8-4.9 4.9-1.3.1-1.6.1-4.9.1-3.2 0-3.6 0-4.8-.1-3.3-.1-4.8-1.7-4.9-4.9C2.2 15.6 2.2 15.3 2.2 12c0-3.2 0-3.6.1-4.8C2.4 3.9 4 2.3 7.2 2.2c1.2-.1 1.6-.1 4.8-.1ZM12 0C8.7 0 8.3 0 7.1.1 2.7.3.3 2.7.1 7.1.0 8.3 0 8.7 0 12c0 3.3 0 3.7.1 4.9.2 4.4 2.6 6.8 7 7C8.3 24 8.7 24 12 24c3.3 0 3.7 0 4.9-.1 4.4-.2 6.8-2.6 7-7 .1-1.2.1-1.6.1-4.9 0-3.3 0-3.7-.1-4.9C23.7 2.7 21.3.3 16.9.1 15.7 0 15.3 0 12 0Zm0 5.8a6.2 6.2 0 1 0 0 12.4A6.2 6.2 0 0 0 12 5.8ZM12 16a4 4 0 1 1 0-8 4 4 0 0 1 0 8Zm6.4-11.9a1.44 1.44 0 1 0 0 2.88 1.44 1.44 0 0 0 0-2.88Z"/></svg>
