<svg xmlns="http://www.w3.org/2000/svg" viewBox="0 0 24 24" fill="#1ab7ea"><path d="M23.98 6.63c-.1 2.22-1.65 5.26-4.65 9.11C16.27 19.75 13.72 22 11.62 22c-1.3 0-2.4-1.2-3.3-3.6L6.7 12.5C6.1 10.1 5.4 8.9 4.7 8.9c-.16 0-.72.34-1.68 1.02L2 8.74c1.06-.93 2.1-1.86 3.12-2.8C6.5 4.8 7.53 4.13 8.2 4.07c1.6-.16 2.6.94 2.97 3.29.4 2.52.68 4.08.84 4.7.46 2.1.98 3.14 1.54 3.14.44 0 1.1-.69 1.96-2.08.87-1.38 1.33-2.44 1.38-3.15.12-1.19-.34-1.79-1.38-1.79-.5 0-1 .11-1.53.34 1.02-3.33 2.96-4.95 5.83-4.86 2.12.06 3.12 1.44 3.06 4Z"/></svg>
